<svg width="64" height="82" viewBox="0 0 64 82" fill="none" xmlns="http://www.w3.org/2000/svg">
<path fill-rule="evenodd" clip-rule="evenodd" d="M31.1782 0.631592C33.4442 0.631592 35.2811 2.4685 35.2811 4.73444V48.0317C35.2811 50.2976 33.4442 52.1345 31.1782 52.1345C28.9123 52.1345 27.0754 50.2976 27.0754 48.0317V4.73444C27.0754 2.4685 28.9123 0.631592 31.1782 0.631592ZM60.4895 25.9129C62.7316 26.2403 64.2839 28.3233 63.9565 30.5655L59.8546 58.6588L59.8186 58.9052L59.7531 59.1455C58.427 64.0079 56.078 69.7027 51.5501 74.2065C46.909 78.823 40.3038 81.8625 31.1777 81.8625C21.5314 81.8625 14.7542 77.0714 10.4062 71.9784C6.14294 66.9848 3.98478 61.4643 3.39441 59.0348L3.3781 58.9677L3.36405 58.9L0.0865802 43.1138C-0.374044 40.8952 1.0511 38.7233 3.26973 38.2626C5.48836 37.802 7.66032 39.2272 8.12094 41.4458L11.3824 57.1546C11.7321 58.528 13.3488 62.7873 16.6469 66.6505C19.9077 70.47 24.5747 73.6568 31.1777 73.6568C38.3011 73.6568 42.7736 71.3626 45.7632 68.3888C48.8079 65.3603 50.6316 61.3058 51.7719 57.2209L55.8369 29.38C56.1643 27.1378 58.2473 25.5855 60.4895 25.9129ZM19.5115 13.0091C19.2985 10.7531 17.2971 9.09697 15.0412 9.3099C12.7853 9.52283 11.1291 11.5242 11.3421 13.7801L14.7838 50.2442L14.787 50.278L14.7908 50.3117C15.2426 54.3784 16.4094 58.6794 18.9586 62.0564C21.6539 65.6271 25.6923 67.8745 31.0159 67.8745C35.9498 67.8745 40.3904 66.321 43.5703 62.3571C46.5613 58.6289 47.9682 53.3249 48.3999 46.8493L48.4005 46.8398L50.5354 13.658C50.6809 11.3968 48.9657 9.4457 46.7045 9.30021C44.4432 9.15473 42.4921 10.8699 42.3467 13.1312L40.2124 46.3035L40.2121 46.3082C39.8229 52.1381 38.6072 55.4305 37.1698 57.2223C35.921 58.779 34.1267 59.6688 31.0159 59.6688C28.295 59.6688 26.6699 58.6522 25.5079 57.1127C24.2039 55.3852 23.3208 52.7415 22.9499 49.4382L19.5115 13.0091Z" fill="black"/>
</svg>
