<svg width="50" height="60" viewBox="0 0 50 60" fill="none" xmlns="http://www.w3.org/2000/svg">
<path fill-rule="evenodd" clip-rule="evenodd" d="M24.9151 0C26.5783 0 27.926 1.34016 27.926 2.99333V34.5818C27.926 36.2351 26.5783 37.5752 24.9151 37.5752C23.2519 37.5752 21.9042 36.2351 21.9042 34.5818V2.99333C21.9042 1.34016 23.2519 0 24.9151 0ZM46.426 18.4486C48.0711 18.6874 49.2104 20.2071 48.9696 21.8429L45.9599 42.3391L45.9334 42.5189L45.8852 42.6942C44.9121 46.2417 43.1887 50.3964 39.8659 53.6824C36.46 57.0504 31.6125 59.2679 24.9151 59.2679C17.8359 59.2679 12.8632 55.7725 9.67168 52.0568C6.54278 48.4135 4.95906 44.3859 4.5267 42.6134L4.51466 42.5644L4.50382 42.5151L2.09872 30.998C1.7603 29.3793 2.80688 27.7946 4.43516 27.4587C6.06344 27.1226 7.6568 28.1623 7.99522 29.781L10.3883 41.2417C10.6448 42.2437 11.8311 45.3512 14.2518 48.1696C16.6448 50.9562 20.07 53.2813 24.9151 53.2813C30.1432 53.2813 33.425 51.6075 35.6181 49.4379C37.8534 47.2284 39.1914 44.2703 40.0285 41.29L43.0116 20.978C43.2513 19.3422 44.7796 18.2097 46.426 18.4486ZM16.3546 9.03546C16.198 7.38961 14.7287 6.18131 13.074 6.33665C11.418 6.49201 10.2028 7.95217 10.3594 9.59803L12.8849 36.2012L12.8873 36.2259L12.8897 36.2506C13.2209 39.2174 14.0772 42.3554 15.9487 44.8191C17.9263 47.4243 20.8902 49.0639 24.7971 49.0639C28.4173 49.0639 31.6763 47.9304 34.0091 45.0385C36.2047 42.3185 37.2368 38.4489 37.5535 33.7244L37.5547 33.7175L39.1204 9.50894C39.2276 7.85917 37.969 6.43573 36.3094 6.32959C34.6498 6.22345 33.2179 7.47479 33.1119 9.12456L31.545 33.3262V33.3295C31.2596 37.5829 30.3672 39.985 29.3122 41.2923C28.3957 42.4279 27.0793 43.0773 24.7971 43.0773C22.8003 43.0773 21.6068 42.3355 20.7541 41.2123C19.7978 39.952 19.1499 38.0232 18.8777 35.6132L16.3546 9.03546Z" fill="white"/>
</svg>
